<?xml version="1.0" standalone="no"?>
<!DOCTYPE svg PUBLIC "-//W3C//DTD SVG 20010904//EN"
 "http://www.w3.org/TR/2001/REC-SVG-20010904/DTD/svg10.dtd">
<svg version="1.0" xmlns="http://www.w3.org/2000/svg"
 width="300.000000pt" height="300.000000pt" viewBox="0 0 300.000000 300.000000"
 preserveAspectRatio="xMidYMid meet">
<metadata>
Created by potrace 1.11, written by Peter Selinger 2001-2013
</metadata>
<g transform="translate(0.000000,300.000000) scale(0.100000,-0.100000)"
fill="#000000" stroke="none">
<path d="M2190 2710 c0 -5 5 -10 11 -10 5 0 7 5 4 10 -3 6 -8 10 -11 10 -2 0
-4 -4 -4 -10z"/>
<path d="M722 2660 c-7 -11 -17 -20 -23 -20 -6 0 -16 -6 -23 -12 -7 -7 -35
-31 -62 -53 -55 -45 -116 -107 -157 -156 -66 -82 -97 -125 -97 -136 0 -7 -3
-13 -7 -13 -5 0 -13 -10 -19 -23 -6 -12 -28 -56 -50 -97 -21 -41 -47 -102 -58
-135 -10 -33 -22 -68 -27 -77 -5 -10 -9 -29 -9 -42 0 -14 -4 -27 -9 -30 -16
-11 -24 -113 -24 -316 0 -204 7 -286 24 -305 5 -5 9 -18 9 -29 0 -44 86 -276
102 -276 5 0 8 -9 8 -20 0 -11 5 -20 10 -20 6 0 10 -4 10 -10 0 -10 84 -144
104 -166 6 -7 34 -38 61 -69 65 -74 106 -115 139 -139 15 -11 37 -28 49 -39
12 -10 34 -26 50 -35 15 -9 27 -20 27 -24 0 -4 5 -8 10 -8 6 0 28 -11 50 -25
22 -14 46 -25 55 -25 8 0 15 -3 15 -7 0 -9 49 -33 67 -33 7 0 13 -4 13 -10 0
-5 8 -10 18 -10 10 0 22 -4 27 -8 6 -4 28 -14 50 -21 22 -7 49 -16 60 -21 11
-4 35 -14 54 -21 19 -7 49 -28 67 -46 18 -18 38 -33 44 -33 5 0 10 -4 10 -8 0
-14 86 -50 149 -63 109 -21 234 18 320 100 22 22 58 45 79 51 20 6 48 16 62
22 42 18 64 26 103 39 20 7 37 17 37 21 0 4 6 8 14 8 18 0 190 90 194 101 2 5
10 9 18 9 8 0 14 5 14 10 0 6 5 10 11 10 6 0 16 6 24 12 7 7 30 27 50 43 57
46 205 197 205 209 0 4 10 17 23 30 13 13 29 37 36 55 8 17 17 31 22 31 5 0 9
6 9 14 0 8 3 16 8 18 11 5 90 167 107 223 9 28 20 59 25 70 5 11 11 34 15 50
3 17 11 50 16 75 21 95 30 268 20 383 -14 152 -21 200 -32 212 -5 5 -9 21 -9
36 0 15 -4 31 -10 34 -5 3 -10 19 -10 36 0 16 -4 29 -9 29 -5 0 -11 13 -14 28
-6 27 -65 162 -77 172 -3 3 -10 14 -16 25 -26 48 -39 70 -44 75 -3 3 -19 23
-35 45 -47 64 -56 74 -130 149 -38 39 -83 80 -99 91 -15 11 -34 26 -41 33 -8
6 -17 12 -21 12 -3 0 -15 10 -25 22 -11 11 -22 18 -26 15 -6 -7 34 -47 47 -47
10 0 200 -188 200 -198 0 -4 16 -24 34 -46 19 -21 40 -50 47 -65 8 -14 17 -28
20 -31 12 -9 39 -69 39 -85 0 -8 5 -15 10 -15 6 0 10 -9 10 -19 0 -11 4 -22 8
-25 4 -3 14 -28 22 -56 8 -28 18 -53 22 -56 4 -3 8 -22 8 -42 0 -20 5 -55 11
-77 5 -22 9 -116 9 -210 -1 -161 -8 -220 -41 -350 -6 -22 -13 -52 -16 -67 -3
-16 -9 -28 -14 -28 -5 0 -9 -13 -9 -28 0 -15 -4 -32 -9 -37 -4 -6 -16 -31 -26
-58 -10 -26 -22 -47 -26 -47 -5 0 -9 -7 -9 -15 0 -22 -30 -71 -67 -110 -7 -8
-13 -16 -13 -20 0 -9 -51 -75 -85 -110 -16 -17 -39 -43 -50 -58 -11 -15 -23
-27 -28 -27 -4 0 -27 -19 -52 -43 -53 -51 -62 -58 -97 -76 -15 -8 -36 -22 -45
-31 -26 -24 -154 -90 -175 -90 -11 0 -25 14 -35 35 -9 19 -23 35 -30 35 -7 0
-13 4 -13 9 0 12 29 41 40 41 5 0 15 6 22 13 7 7 26 20 41 30 74 47 227 199
227 225 0 5 8 17 18 28 32 35 62 106 62 145 0 59 -16 60 -185 18 -45 -11 -115
-25 -195 -40 -216 -38 -687 -38 -905 2 -126 23 -151 28 -190 39 -22 6 -56 15
-76 19 -19 4 -41 11 -48 16 -7 4 -24 1 -38 -6 -22 -12 -24 -19 -20 -51 6 -41
55 -148 68 -148 5 0 9 -7 9 -16 0 -35 277 -284 317 -284 10 0 63 -45 63 -54 0
-3 -7 -6 -15 -6 -8 0 -22 -11 -31 -25 -9 -14 -24 -25 -33 -25 -25 0 -162 68
-181 90 -10 11 -20 20 -24 20 -8 0 -16 6 -64 49 -18 17 -42 33 -53 36 -10 4
-19 10 -19 16 0 5 -33 42 -72 82 -40 40 -80 83 -88 96 -8 13 -25 34 -37 47
-13 13 -23 28 -23 34 0 5 -4 10 -10 10 -5 0 -10 4 -10 10 0 5 -13 31 -28 57
-24 42 -43 83 -73 161 -5 12 -13 32 -18 45 -5 12 -12 36 -16 52 -3 17 -10 48
-15 70 -31 139 -39 203 -39 332 -1 78 4 166 9 195 22 111 34 159 42 164 4 3 8
14 8 25 0 10 4 27 9 37 5 9 22 44 37 77 15 33 40 79 56 102 15 23 28 45 28 49
0 3 8 14 18 23 9 9 30 34 47 56 31 42 174 185 185 185 9 0 50 36 50 44 0 13
-16 5 -28 -14z m738 -1853 c0 -6 -15 -19 -32 -26 -35 -16 -65 -44 -85 -79 -40
-69 15 -158 115 -187 21 -6 22 -11 22 -101 0 -90 -1 -94 -22 -94 -20 0 -88 62
-88 81 0 5 -9 9 -20 9 -35 0 -26 -52 16 -94 20 -20 42 -36 50 -36 27 0 64 -24
64 -42 0 -11 7 -18 20 -18 11 0 20 5 20 12 0 19 32 48 54 48 23 0 64 33 84 67
6 13 12 43 12 69 0 39 -5 51 -34 80 -19 19 -48 37 -65 40 -47 10 -53 24 -45
104 3 39 10 73 14 75 15 9 40 -7 61 -41 35 -58 89 -35 58 24 -18 34 -45 59
-86 79 -18 8 -33 22 -33 30 0 12 9 14 53 7 50 -7 77 -10 123 -13 32 -2 80 -51
88 -91 27 -135 31 -303 8 -347 -6 -10 -20 -40 -33 -67 -26 -54 -108 -118 -169
-131 -96 -20 -203 -10 -277 27 -54 26 -113 83 -113 109 0 5 -9 27 -20 49 -16
32 -20 59 -20 151 0 62 4 126 10 143 5 17 12 44 15 61 4 16 24 46 46 67 36 35
43 37 111 41 40 1 79 4 86 5 6 1 12 -4 12 -11z m17 -171 c3 -36 2 -66 -3 -66
-30 1 -52 16 -69 46 -16 30 -17 37 -4 60 15 29 49 47 63 34 4 -5 11 -38 13
-74z m113 -171 c46 -49 15 -145 -47 -145 -22 0 -23 3 -23 85 0 82 1 85 23 85
13 0 34 -11 47 -25z"/>
<path d="M910 2430 c-8 -5 -25 -10 -38 -10 -12 0 -30 -4 -40 -9 -9 -5 -35 -17
-57 -27 -89 -39 -175 -113 -175 -151 0 -18 6 -23 26 -23 14 0 38 8 52 18 15
10 43 24 62 31 19 7 44 17 55 21 86 34 127 42 275 49 110 5 125 8 128 24 5 24
-24 55 -67 73 -38 16 -198 19 -221 4z"/>
<path d="M1863 2426 c-41 -23 -63 -49 -63 -73 0 -23 2 -23 103 -23 117 0 221
-17 302 -50 11 -4 36 -14 55 -21 19 -7 47 -21 62 -31 14 -10 38 -18 52 -18 39
0 35 40 -8 78 -52 46 -123 92 -140 92 -9 0 -16 5 -16 10 0 6 -9 10 -19 10 -11
0 -22 4 -25 9 -15 24 -266 38 -303 17z"/>
<path d="M1010 1945 c0 -20 -6 -25 -35 -31 -21 -4 -53 -22 -75 -43 -38 -35
-40 -41 -40 -95 0 -86 16 -109 98 -146 l52 -24 0 -108 c0 -59 -4 -108 -8 -108
-16 0 -69 30 -84 47 -9 10 -18 27 -20 38 -2 13 -12 21 -31 23 -24 3 -27 0 -27
-27 0 -41 70 -113 127 -131 30 -9 43 -19 45 -34 2 -15 11 -22 31 -24 22 -3 27
0 27 20 0 22 36 48 66 48 16 0 84 63 84 78 0 7 5 12 10 12 6 0 10 23 10 50 0
47 -11 78 -36 107 -21 22 -84 53 -109 53 l-25 0 0 109 c0 108 0 109 23 104 30
-8 63 -39 78 -74 16 -40 43 -35 47 10 3 28 -3 39 -37 71 -23 22 -55 40 -76 44
-29 6 -35 11 -35 31 0 21 -5 25 -30 25 -25 0 -30 -4 -30 -25z m1 -180 c-2 -90
-6 -108 -19 -90 -4 6 -20 18 -37 27 -26 14 -30 23 -33 64 -3 38 1 51 20 70 13
14 33 22 47 21 24 -2 24 -4 22 -92z m117 -192 c15 -10 32 -25 39 -33 17 -21
16 -66 -3 -95 -15 -23 -65 -55 -86 -55 -4 0 -8 45 -8 100 0 110 5 117 58 83z"/>
<path d="M1927 1950 c-3 -11 -18 -25 -34 -31 -76 -30 -113 -58 -113 -83 0 -9
-4 -16 -10 -16 -5 0 -10 -22 -10 -49 0 -45 4 -54 43 -94 26 -26 59 -49 86 -57
l44 -14 -7 -101 c-7 -103 -16 -129 -38 -107 -7 7 -18 12 -26 12 -18 0 -35 19
-51 58 -10 23 -20 32 -37 32 -28 0 -40 -31 -22 -62 20 -35 80 -88 99 -88 10 0
21 -4 24 -10 3 -5 17 -10 31 -10 19 0 24 -5 24 -25 0 -18 5 -25 20 -25 15 0
20 7 20 25 0 18 5 25 19 25 11 0 23 5 26 10 3 6 15 10 26 10 10 0 19 5 19 10
0 6 7 10 14 10 8 0 26 15 40 33 21 28 26 45 26 96 0 52 -4 66 -27 91 -29 33
-76 60 -103 60 -32 0 -40 22 -40 117 l0 93 29 0 c22 0 37 -9 55 -33 15 -19 26
-39 26 -44 0 -18 33 -25 47 -10 11 11 11 19 -1 48 -19 45 -43 66 -102 88 -35
13 -50 25 -52 40 -4 27 -38 28 -45 1z m3 -159 c0 -38 -4 -81 -10 -96 -9 -23
-12 -24 -32 -13 -46 27 -68 56 -68 91 0 44 41 87 81 87 l29 0 0 -69z m117
-227 c29 -22 33 -31 33 -70 0 -47 -6 -57 -52 -87 -53 -34 -58 -27 -58 83 0 96
1 100 22 100 11 0 36 -11 55 -26z"/>
</g>
</svg>
